<svg width="31" height="30" viewBox="0 0 31 30" fill="none" xmlns="http://www.w3.org/2000/svg">
<path d="M15.5 15C19.6437 15 23 11.7556 23 7.75C23 3.74437 19.6437 0.5 15.5 0.5C11.3562 0.5 8 3.74437 8 7.75C8 11.7556 11.3562 15 15.5 15ZM15.5 18.625C10.4937 18.625 0.5 21.0537 0.5 25.875V27.6875C0.5 28.6844 1.34375 29.5 2.375 29.5H28.625C29.6562 29.5 30.5 28.6844 30.5 27.6875V25.875C30.5 21.0537 20.5063 18.625 15.5 18.625Z" fill="#D8D8D8"/>
<path d="M15.5 15C19.6437 15 23 11.7556 23 7.75C23 3.74437 19.6437 0.5 15.5 0.5C11.3562 0.5 8 3.74437 8 7.75C8 11.7556 11.3562 15 15.5 15ZM15.5 18.625C10.4937 18.625 0.5 21.0537 0.5 25.875V27.6875C0.5 28.6844 1.34375 29.5 2.375 29.5H28.625C29.6562 29.5 30.5 28.6844 30.5 27.6875V25.875C30.5 21.0537 20.5063 18.625 15.5 18.625Z" fill="black" fill-opacity="0.2"/>
<path d="M15.5 15C19.6437 15 23 11.7556 23 7.75C23 3.74437 19.6437 0.5 15.5 0.5C11.3562 0.5 8 3.74437 8 7.75C8 11.7556 11.3562 15 15.5 15ZM15.5 18.625C10.4937 18.625 0.5 21.0537 0.5 25.875V27.6875C0.5 28.6844 1.34375 29.5 2.375 29.5H28.625C29.6562 29.5 30.5 28.6844 30.5 27.6875V25.875C30.5 21.0537 20.5063 18.625 15.5 18.625Z" fill="black" fill-opacity="0.2"/>
</svg>
