<svg width="35" height="32" viewBox="0 0 35 32" fill="none" xmlns="http://www.w3.org/2000/svg">
<path d="M25.7886 11.9004L18.8205 1.18599C18.5182 0.728662 18.0091 0.5 17.5 0.5C16.9909 0.5 16.4818 0.728662 16.1795 1.20232L9.21136 11.9004H1.59091C0.715909 11.9004 0 12.6354 0 13.5337C0 13.6807 0.015909 13.8277 0.0636363 13.9747L4.10455 29.1154C4.47045 30.4874 5.69545 31.5 7.15909 31.5H27.8409C29.3045 31.5 30.5295 30.4874 30.9114 29.1154L34.9523 13.9747L35 13.5337C35 12.6354 34.2841 11.9004 33.4091 11.9004H25.7886ZM12.7273 11.9004L17.5 4.71391L22.2727 11.9004H12.7273ZM17.5 24.9668C15.75 24.9668 14.3182 23.4968 14.3182 21.7002C14.3182 19.9036 15.75 18.4336 17.5 18.4336C19.25 18.4336 20.6818 19.9036 20.6818 21.7002C20.6818 23.4968 19.25 24.9668 17.5 24.9668Z" fill="#D8D8D8"/>
<path d="M25.7886 11.9004L18.8205 1.18599C18.5182 0.728662 18.0091 0.5 17.5 0.5C16.9909 0.5 16.4818 0.728662 16.1795 1.20232L9.21136 11.9004H1.59091C0.715909 11.9004 0 12.6354 0 13.5337C0 13.6807 0.015909 13.8277 0.0636363 13.9747L4.10455 29.1154C4.47045 30.4874 5.69545 31.5 7.15909 31.5H27.8409C29.3045 31.5 30.5295 30.4874 30.9114 29.1154L34.9523 13.9747L35 13.5337C35 12.6354 34.2841 11.9004 33.4091 11.9004H25.7886ZM12.7273 11.9004L17.5 4.71391L22.2727 11.9004H12.7273ZM17.5 24.9668C15.75 24.9668 14.3182 23.4968 14.3182 21.7002C14.3182 19.9036 15.75 18.4336 17.5 18.4336C19.25 18.4336 20.6818 19.9036 20.6818 21.7002C20.6818 23.4968 19.25 24.9668 17.5 24.9668Z" fill="black" fill-opacity="0.2"/>
<path d="M25.7886 11.9004L18.8205 1.18599C18.5182 0.728662 18.0091 0.5 17.5 0.5C16.9909 0.5 16.4818 0.728662 16.1795 1.20232L9.21136 11.9004H1.59091C0.715909 11.9004 0 12.6354 0 13.5337C0 13.6807 0.015909 13.8277 0.0636363 13.9747L4.10455 29.1154C4.47045 30.4874 5.69545 31.5 7.15909 31.5H27.8409C29.3045 31.5 30.5295 30.4874 30.9114 29.1154L34.9523 13.9747L35 13.5337C35 12.6354 34.2841 11.9004 33.4091 11.9004H25.7886ZM12.7273 11.9004L17.5 4.71391L22.2727 11.9004H12.7273ZM17.5 24.9668C15.75 24.9668 14.3182 23.4968 14.3182 21.7002C14.3182 19.9036 15.75 18.4336 17.5 18.4336C19.25 18.4336 20.6818 19.9036 20.6818 21.7002C20.6818 23.4968 19.25 24.9668 17.5 24.9668Z" fill="black" fill-opacity="0.2"/>
</svg>
