<svg width="35" height="30" viewBox="0 0 35 30" fill="none" xmlns="http://www.w3.org/2000/svg">
<path d="M31.1111 3.72222V26.2778H3.88889V3.72222H31.1111ZM33.25 0.5H1.75C0.777778 0.5 0 1.14444 0 1.95V28.05C0 28.6944 0.777778 29.5 1.75 29.5H33.25C34.0278 29.5 35 28.6944 35 28.05V1.95C35 1.14444 34.0278 0.5 33.25 0.5ZM15.5556 6.94444H27.2222V10.1667H15.5556V6.94444ZM15.5556 13.3889H27.2222V16.6111H15.5556V13.3889ZM15.5556 19.8333H27.2222V23.0556H15.5556V19.8333ZM7.77778 6.94444H11.6667V10.1667H7.77778V6.94444ZM7.77778 13.3889H11.6667V16.6111H7.77778V13.3889ZM7.77778 19.8333H11.6667V23.0556H7.77778V19.8333Z" fill="#D8D8D8"/>
<path d="M31.1111 3.72222V26.2778H3.88889V3.72222H31.1111ZM33.25 0.5H1.75C0.777778 0.5 0 1.14444 0 1.95V28.05C0 28.6944 0.777778 29.5 1.75 29.5H33.25C34.0278 29.5 35 28.6944 35 28.05V1.95C35 1.14444 34.0278 0.5 33.25 0.5ZM15.5556 6.94444H27.2222V10.1667H15.5556V6.94444ZM15.5556 13.3889H27.2222V16.6111H15.5556V13.3889ZM15.5556 19.8333H27.2222V23.0556H15.5556V19.8333ZM7.77778 6.94444H11.6667V10.1667H7.77778V6.94444ZM7.77778 13.3889H11.6667V16.6111H7.77778V13.3889ZM7.77778 19.8333H11.6667V23.0556H7.77778V19.8333Z" fill="black" fill-opacity="0.2"/>
<path d="M31.1111 3.72222V26.2778H3.88889V3.72222H31.1111ZM33.25 0.5H1.75C0.777778 0.5 0 1.14444 0 1.95V28.05C0 28.6944 0.777778 29.5 1.75 29.5H33.25C34.0278 29.5 35 28.6944 35 28.05V1.95C35 1.14444 34.0278 0.5 33.25 0.5ZM15.5556 6.94444H27.2222V10.1667H15.5556V6.94444ZM15.5556 13.3889H27.2222V16.6111H15.5556V13.3889ZM15.5556 19.8333H27.2222V23.0556H15.5556V19.8333ZM7.77778 6.94444H11.6667V10.1667H7.77778V6.94444ZM7.77778 13.3889H11.6667V16.6111H7.77778V13.3889ZM7.77778 19.8333H11.6667V23.0556H7.77778V19.8333Z" fill="black" fill-opacity="0.2"/>
</svg>
